#N canvas -1158 177 945 588 12;
#X obj 179 241 netreceive -u -b;
#X msg 179 179 listen 0;
#X obj 179 270 oscparse;
#X obj 262 148 bng 19 250 50 0 empty empty empty 0 -10 0 12 #fcfcfc #000000 #000000;
#X obj 179 149 bng 19 250 50 0 empty empty empty 0 -10 0 12 #fcfcfc #000000 #000000;
#X msg 262 179 listen 12345;
#X obj 179 343 route openbci;
#X obj 179 302 list trim;
#X obj 354 250 bng 19 250 50 0 empty empty empty 0 -10 0 12 #fcfcfc #000000 #000000;
#X obj 354 311 list prepend symbol;
#X obj 354 340 list trim;
#X text 423 126 Enter the address you'd like to receive here. This is the same as the Address textfield in the GUI. Example: accelerometer, f 23;
#X text 437 213 Clicking the bang would change the routing address to the new value., f 21;
#X text 437 339 After data is routed \, we are left with a list of floats that can be unpacked., f 21;
#X text 149 508 Happy Hacking! We're excited to see what our global Community can continue to create using OpenBCI hardware and software! -RW, f 62;
#X text 48 256 PureData adds the "list" selector after our binary data is parsed., f 16;
#X text 152 107 Turn off netreceive, f 10;
#X text 249 107 Start recieving on named port, f 16;
#X text 647 22 Example Incoming OSC Packet;
#X obj 179 376 route time-series-raw;
#X msg 354 283 time-series-raw;
#X obj 52 427 print rawmsg;
#X obj 179 419 route ch0 ch1 ch2 ch3;
#X obj 179 461 print channel0;
#X text 40 61 openbci time-series-raw ch0 -3.92592 -3.88553 -3.26396 -3.62399 -2.70645 -1.6476 -0.789745 0.749153 1.55314 3.081, f 114;
#X text 32 18 OpenBCI OSC Reciever Example June 21 \, 2023 Richard Waltman, f 31;
#X connect 0 0 2 0;
#X connect 1 0 0 0;
#X connect 2 0 7 0;
#X connect 3 0 5 0;
#X connect 4 0 1 0;
#X connect 5 0 0 0;
#X connect 6 0 19 0;
#X connect 7 0 6 0;
#X connect 7 0 21 0;
#X connect 8 0 20 0;
#X connect 9 0 10 0;
#X connect 10 0 19 1;
#X connect 19 0 22 0;
#X connect 20 0 9 0;
#X connect 22 0 23 0;
