#N canvas 3103 183 661 588 12;
#X obj 179 241 netreceive -u -b;
#X msg 179 179 listen 0;
#X obj 179 270 oscparse;
#X obj 262 148 bng 19 250 50 0 empty empty empty 0 -10 0 12 #fcfcfc #000000 #000000;
#X obj 179 149 bng 19 250 50 0 empty empty empty 0 -10 0 12 #fcfcfc #000000 #000000;
#X msg 262 179 listen 12345;
#X obj 179 343 route openbci;
#X obj 179 302 list trim;
#X obj 354 250 bng 19 250 50 0 empty empty empty 0 -10 0 12 #fcfcfc #000000 #000000;
#X obj 354 311 list prepend symbol;
#X obj 354 340 list trim;
#X obj 69 389 print data;
#X text 423 126 Enter the address you'd like to receive here. This is the same as the Address textfield in the GUI. Example: accelerometer, f 23;
#X text 437 213 Clicking the bang would change the routing address to the new value., f 21;
#X text 437 339 After data is routed \, we are left with a list of floats that can be unpacked., f 21;
#X text 149 508 Happy Hacking! We're excited to see what our global Community can continue to create using OpenBCI hardware and software! -RW, f 62;
#X text 48 256 PureData adds the "list" selector after our binary data is parsed., f 16;
#X text 152 107 Turn off netreceive, f 10;
#X text 249 107 Start recieving on named port, f 16;
#X text 34 25 OpenBCI OSC Reciever Example June 14 \, 2023 Richard Waltman, f 31;
#X obj 179 383 route accelerometer;
#X msg 354 283 accelerometer;
#X obj 179 421 route x y z, f 21;
#X floatatom 179 466 5 0 0 0 - - - 0;
#X floatatom 275 466 5 0 0 0 - - - 0;
#X floatatom 227 466 5 0 0 0 - - - 0;
#X text 394 19 Example Incoming OSC Packet;
#X text 359 41 openbci accelerometer x 0.986508;
#X connect 0 0 2 0;
#X connect 1 0 0 0;
#X connect 2 0 7 0;
#X connect 3 0 5 0;
#X connect 4 0 1 0;
#X connect 5 0 0 0;
#X connect 6 0 20 0;
#X connect 7 0 6 0;
#X connect 7 0 11 0;
#X connect 8 0 21 0;
#X connect 9 0 10 0;
#X connect 10 0 20 1;
#X connect 20 0 22 0;
#X connect 21 0 9 0;
#X connect 22 0 23 0;
#X connect 22 1 25 0;
#X connect 22 2 24 0;
