#N canvas 844 372 663 677 12;
#X obj 179 241 netreceive -u -b;
#X msg 179 179 listen 0;
#X obj 179 270 oscparse;
#X obj 262 148 bng 19 250 50 0 empty empty empty 0 -10 0 12 #fcfcfc #000000 #000000;
#X obj 179 149 bng 19 250 50 0 empty empty empty 0 -10 0 12 #fcfcfc #000000 #000000;
#X msg 262 179 listen 12345;
#X floatatom 317 471 5 0 0 0 - - - 0;
#X floatatom 225 471 5 0 0 0 - - - 0;
#X floatatom 271 471 5 0 0 0 - - - 0;
#X obj 179 343 route openbci;
#X obj 179 302 list trim;
#X msg 179 470;
#X obj 354 250 bng 19 250 50 0 empty empty empty 0 -10 0 12 #fcfcfc #000000 #000000;
#X obj 354 311 list prepend symbol;
#X obj 354 340 list trim;
#X obj 92 431 print data;
#X obj 179 383 route accelerometer;
#X text 423 126 Enter the address you'd like to receive here. This is the same as the Address textfield in the GUI. Example: accelerometer, f 23;
#X text 437 213 Clicking the bang would change the routing address to the new value., f 21;
#X obj 179 417 unpack s f f f f f f f f, f 53;
#X floatatom 455 471 5 0 0 0 - - - 0;
#X floatatom 363 471 5 0 0 0 - - - 0;
#X floatatom 409 471 5 0 0 0 - - - 0;
#X floatatom 547 471 5 0 0 0 - - - 0;
#X floatatom 501 471 5 0 0 0 - - - 0;
#X text 437 339 After data is routed \, we are left with a list of floats that can be unpacked., f 21;
#X text 119 534 Happy Hacking! We're excited to see what our global Community can continue to create using OpenBCI hardware and software! -RW, f 62;
#X text 48 256 PureData adds the "list" selector after our binary data is parsed., f 16;
#X text 297 24 Example Incoming OSC Packet: openbci accel 0.830266 0.842021 0.855461, f 41;
#X msg 354 283 accelerometer;
#X text 152 107 Turn off netreceive, f 10;
#X text 249 107 Start recieving on named port, f 16;
#X text 34 25 OpenBCI OSC Reciever Example June 14 \, 2023 Richard Waltman, f 31;
#X connect 0 0 2 0;
#X connect 1 0 0 0;
#X connect 2 0 10 0;
#X connect 3 0 5 0;
#X connect 4 0 1 0;
#X connect 5 0 0 0;
#X connect 9 0 16 0;
#X connect 10 0 9 0;
#X connect 12 0 29 0;
#X connect 13 0 14 0;
#X connect 14 0 16 1;
#X connect 16 0 15 0;
#X connect 16 0 19 0;
#X connect 19 0 11 0;
#X connect 19 1 7 0;
#X connect 19 2 8 0;
#X connect 19 3 6 0;
#X connect 19 4 21 0;
#X connect 19 5 22 0;
#X connect 19 6 20 0;
#X connect 19 7 24 0;
#X connect 19 8 23 0;
#X connect 29 0 13 0;
